<svg width="1423" height="616" viewBox="0 0 1423 616" fill="none" xmlns="http://www.w3.org/2000/svg">
<rect x="1369" y="497.538" width="226.799" height="110" rx="55" transform="rotate(-42.608 1369 497.538)" fill="url(#paint0_linear_679_1188)"/>
<circle cx="1344.5" cy="292.5" r="11.5" fill="url(#paint1_linear_679_1188)"/>
<circle cx="733" cy="63" r="16" fill="url(#paint2_linear_679_1188)"/>
<circle cx="11.5" cy="541.5" r="11.5" fill="url(#paint3_linear_679_1188)"/>
<circle cx="348.5" cy="29.5" r="10.5" fill="url(#paint4_linear_679_1188)"/>
<circle cx="1385" cy="11" r="11" fill="url(#paint5_linear_679_1188)"/>
<circle cx="567.5" cy="439.5" r="10.5" fill="url(#paint6_linear_679_1188)"/>
<circle cx="322" cy="600" r="16" fill="url(#paint7_linear_679_1188)"/>
<circle cx="27" cy="61" r="14" fill="url(#paint8_linear_679_1188)"/>
<defs>
<linearGradient id="paint0_linear_679_1188" x1="1314.53" y1="556.758" x2="1350.14" y2="629.773" gradientUnits="userSpaceOnUse">
<stop stop-color="#6E5DE7"/>
<stop offset="1" stop-color="#B8B0F2"/>
</linearGradient>
<linearGradient id="paint1_linear_679_1188" x1="1328.16" y1="281" x2="1341.47" y2="306.421" gradientUnits="userSpaceOnUse">
<stop/>
<stop offset="1" stop-color="#6E5DE7"/>
</linearGradient>
<linearGradient id="paint2_linear_679_1188" x1="710.263" y1="47" x2="728.789" y2="82.3686" gradientUnits="userSpaceOnUse">
<stop/>
<stop offset="1" stop-color="#6E5DE7"/>
</linearGradient>
<linearGradient id="paint3_linear_679_1188" x1="-5.52397" y1="542.382" x2="3.9248" y2="551.779" gradientUnits="userSpaceOnUse">
<stop stop-color="#6E5DE7"/>
<stop offset="1" stop-color="#B8B0F2"/>
</linearGradient>
<linearGradient id="paint4_linear_679_1188" x1="332.956" y1="30.3057" x2="341.584" y2="38.8853" gradientUnits="userSpaceOnUse">
<stop stop-color="#6E5DE7"/>
<stop offset="1" stop-color="#B8B0F2"/>
</linearGradient>
<linearGradient id="paint5_linear_679_1188" x1="1368.72" y1="11.844" x2="1377.75" y2="20.8323" gradientUnits="userSpaceOnUse">
<stop stop-color="#6E5DE7"/>
<stop offset="1" stop-color="#B8B0F2"/>
</linearGradient>
<linearGradient id="paint6_linear_679_1188" x1="552.579" y1="429" x2="564.737" y2="452.211" gradientUnits="userSpaceOnUse">
<stop/>
<stop offset="1" stop-color="#6E5DE7"/>
</linearGradient>
<linearGradient id="paint7_linear_679_1188" x1="299.263" y1="584" x2="317.789" y2="619.369" gradientUnits="userSpaceOnUse">
<stop/>
<stop offset="1" stop-color="#6E5DE7"/>
</linearGradient>
<linearGradient id="paint8_linear_679_1188" x1="7.10526" y1="47" x2="23.3155" y2="77.9475" gradientUnits="userSpaceOnUse">
<stop/>
<stop offset="1" stop-color="#6E5DE7"/>
</linearGradient>
</defs>
</svg>
