<svg preserveAspectRatio="xMidYMid meet" viewBox="0 0 37 33" fill="none" xmlns="http://www.w3.org/2000/svg">
<g id="Iconly/Light-Outline/Message">
<g id="Message">
<path id="Combined-Shape" fill-rule="evenodd" clip-rule="evenodd" d="M26.7643 0.333496C32.3143 0.333496 36.4993 4.86183 36.4993 10.8668V22.3135C36.4993 25.3868 35.4127 28.1635 33.4377 30.1335C31.666 31.8985 29.3677 32.8335 26.791 32.8335H10.3693C7.79768 32.8335 5.50102 31.9002 3.72768 30.1335C1.75268 28.1635 0.666016 25.3868 0.666016 22.3135V10.8668C0.666016 4.86183 4.85102 0.333496 10.401 0.333496H26.7643ZM26.7643 2.8335H10.401C6.20935 2.8335 3.16602 6.21183 3.16602 10.8668V22.3135C3.16602 24.7185 3.99268 26.8668 5.49268 28.3618C6.78602 29.6535 8.47435 30.3335 10.3743 30.3335H26.7643C26.7677 30.3302 26.781 30.3335 26.791 30.3335C28.6927 30.3335 30.3793 29.6535 31.6727 28.3618C33.1743 26.8668 33.9993 24.7185 33.9993 22.3135V10.8668C33.9993 6.21183 30.956 2.8335 26.7643 2.8335ZM29.391 10.5482C29.826 11.0832 29.7443 11.8698 29.2093 12.3065L21.8027 18.3265C20.866 19.0698 19.746 19.4415 18.6277 19.4415C17.5127 19.4415 16.401 19.0732 15.471 18.3365L7.99602 12.3098C7.45768 11.8765 7.37435 11.0882 7.80602 10.5515C8.24102 10.0165 9.02768 9.9315 9.56435 10.3632L17.0327 16.3832C17.971 17.1265 19.2927 17.1265 20.2377 16.3765L27.631 10.3665C28.1677 9.92816 28.9543 10.0115 29.391 10.5482Z" fill="currentColor"/>
</g>
</g>
</svg>
